<svg version="1.1" xmlns="http://www.w3.org/2000/svg" viewBox="0 0 795.9706369879236 495.2078779263976" width="1591.9412739758473" height="990.4157558527952">
  <!-- svg-source:excalidraw -->

  <defs>
    <style>
      @font-face {
        font-family: "Virgil";
        src: url("https://excalidraw.com/Virgil.woff2");
      }
      @font-face {
        font-family: "Cascadia";
        src: url("https://excalidraw.com/Cascadia.woff2");
      }
    </style>
  </defs>
  <rect x="0" y="0" width="795.9706369879236" height="495.2078779263976" fill="#ffffff"></rect><g stroke-linecap="round" transform="translate(117 227.89151246574886) rotate(0 92.5 47.5)"><path d="M-1.1 -1.39 C46.7 0.85, 92.53 0.79, 184.19 -1.2 M-0.58 -0.3 C57.65 -0.51, 115.89 -1.44, 185.5 -0.11 M185.18 -1.24 C185.54 21.27, 187 39.47, 184.34 94.74 M184.26 0.62 C184.76 28.04, 185 55.75, 184.56 95.03 M184.97 93.03 C121.11 92.26, 57.9 93.47, -1.02 93.56 M185.51 95.74 C119.11 93.68, 54.12 94.2, 0.25 94.34 M-0.67 94.95 C-0.6 76.18, 2 56.45, 1.7 -1.6 M0.64 94.42 C-0.46 58.51, -1.02 22.62, -0.18 0.01" stroke="#000000" stroke-width="1" fill="none"></path></g><g transform="translate(122 251.39151246574886) rotate(0 87.5 24)"><text x="87.5" y="17" font-family="Virgil, Segoe UI Emoji" font-size="20px" fill="#000000" text-anchor="middle" style="white-space: pre;" direction="ltr">Autonomous </text><text x="87.5" y="41" font-family="Virgil, Segoe UI Emoji" font-size="20px" fill="#000000" text-anchor="middle" style="white-space: pre;" direction="ltr">Proposal</text></g><g stroke-linecap="round" transform="translate(10 102) rotate(0 47 23.5)"><path d="M47.82 1.44 C63.63 7.71, 80.11 16.4, 94.93 25.22 M48.45 -0.76 C57.85 6.3, 67.63 10.46, 93.22 23.43 M92.21 25.72 C80.45 32.54, 62.75 38.34, 47.34 47.49 M93.61 23.39 C84.88 29.65, 73.41 33.88, 47.76 46.63 M46.11 47.99 C31.15 39.23, 12.21 31.3, -0.06 24.75 M48.89 46.64 C30.95 38.25, 15.09 31.33, 0.41 23.11 M-1.33 22.11 C13.34 17.99, 25.45 11.14, 48.82 -1.93 M0.07 24.77 C18.65 14.61, 36.92 4.94, 47.6 -0.29" stroke="#000000" stroke-width="1" fill="none"></path></g><g transform="translate(15 113.5) rotate(0 42 12)"><text x="42" y="17" font-family="Virgil, Segoe UI Emoji" font-size="20px" fill="#000000" text-anchor="middle" style="white-space: pre;" direction="ltr">user</text></g><g stroke-linecap="round" transform="translate(167 42) rotate(0 47 23.5)"><path d="M46.88 -1.01 C65.26 9.57, 82.16 20.17, 92.7 23.22 M47.82 -0.14 C59.01 5.01, 71.16 11.82, 94.46 23.06 M95.73 25.98 C78.09 33.01, 62.89 41.1, 47.8 48.78 M93.92 24.07 C82.13 28.79, 69.14 35.55, 48.43 46.34 M48.79 46.65 C38.84 40.43, 30.07 38.56, -1.23 24.14 M47 46.66 C29.54 37.94, 11.05 30.07, 0.15 23.61 M-0.65 23.1 C16.62 15.69, 37.95 4.87, 46.23 1.19 M-0.57 24.91 C17.9 14.72, 35.04 5.94, 48.93 -0.59" stroke="#000000" stroke-width="1" fill="none"></path></g><g transform="translate(172 53.5) rotate(0 42 12)"><text x="42" y="17" font-family="Virgil, Segoe UI Emoji" font-size="20px" fill="#000000" text-anchor="middle" style="white-space: pre;" direction="ltr">user</text></g><g stroke-linecap="round" transform="translate(355 96) rotate(0 47 21.5)"><path d="M47.01 1.12 C64.25 10.03, 83.32 16.98, 93.75 23.18 M48.63 -0.72 C58.4 4.69, 68.22 10.34, 94.45 22.88 M94.7 20.56 C80.96 29.72, 68.64 35.38, 48.86 44.09 M94.38 21.59 C82.52 26.86, 71.76 31.64, 48.37 42.57 M47.19 41.53 C29 35.93, 11.07 28.51, 0.7 23.48 M48.45 42.81 C32.43 35.74, 19.31 30.58, 0.02 21.86 M0.66 20.55 C9.94 15.19, 20.76 11.68, 47.23 0.23 M-0.09 21.12 C16.34 14.97, 30.3 8.14, 48.68 -0.61" stroke="#000000" stroke-width="1" fill="none"></path></g><g transform="translate(360 105.5) rotate(0 42 12)"><text x="42" y="17" font-family="Virgil, Segoe UI Emoji" font-size="20px" fill="#000000" text-anchor="middle" style="white-space: pre;" direction="ltr">user</text></g><g stroke-linecap="round"><g transform="translate(452.91302325581387 117.5) rotate(0 -73.73693746870941 59.52239805571274)"><path d="M-0.94 0.4 C-25.58 20.47, -123.13 99.65, -147.85 119.48 M0.77 -0.43 C-23.93 19.38, -123.08 98.15, -148.25 117.78" stroke="#000000" stroke-width="1" fill="none"></path></g><g transform="translate(452.91302325581387 117.5) rotate(0 -73.73693746870941 59.52239805571274)"><path d="M-131.79 94.03 C-136.04 99.15, -140.99 108.15, -147.27 118.88 M-132.1 92.97 C-137.46 100.36, -140.33 106.68, -147.66 118.48" stroke="#000000" stroke-width="1" fill="none"></path></g><g transform="translate(452.91302325581387 117.5) rotate(0 -73.73693746870941 59.52239805571274)"><path d="M-119.09 110.15 C-127.02 110.34, -135.77 114.52, -147.27 118.88 M-119.39 109.08 C-128.38 112.03, -134.76 113.88, -147.66 118.48" stroke="#000000" stroke-width="1" fill="none"></path></g></g><g transform="translate(318 10) rotate(0 120 25.5)"><text x="0" y="18.5" font-family="Virgil, Segoe UI Emoji" font-size="20px" fill="#000000" text-anchor="start" style="white-space: pre;" direction="ltr">Multiple users delegate </text><text x="0" y="44" font-family="Virgil, Segoe UI Emoji" font-size="20px" fill="#000000" text-anchor="start" style="white-space: pre;" direction="ltr">their proposition power</text></g><g stroke-linecap="round"><g transform="translate(215.88700409021544 93.05453025189229) rotate(0 9.562395014738343 66.6211604886511)"><path d="M1.18 -0.78 C4.3 21.64, 15.81 111.69, 18.78 134.02 M0.34 1.43 C3.35 23.59, 15.08 110.92, 18.12 132.52" stroke="#000000" stroke-width="1" fill="none"></path></g><g transform="translate(215.88700409021544 93.05453025189229) rotate(0 9.562395014738343 66.6211604886511)"><path d="M2.83 106.9 C10.24 115.15, 13.1 123, 18.65 133.91 M4.61 105.59 C10.47 115.82, 15.77 127.09, 18.98 132.56" stroke="#000000" stroke-width="1" fill="none"></path></g><g transform="translate(215.88700409021544 93.05453025189229) rotate(0 9.562395014738343 66.6211604886511)"><path d="M23.17 104.11 C24.39 113.41, 21.09 122.1, 18.65 133.91 M24.94 102.8 C22.85 114.16, 20.18 126.52, 18.98 132.56" stroke="#000000" stroke-width="1" fill="none"></path></g></g><g stroke-linecap="round"><g transform="translate(64.25901562350782 146.48852617699595) rotate(0 44.426241500181845 38.34415035476563)"><path d="M0.16 -1 C15.11 11.87, 74.93 63.15, 90.08 76.24 M-1.22 1.09 C13.5 14.24, 73.57 65.24, 88.85 77.69" stroke="#000000" stroke-width="1" fill="none"></path></g><g transform="translate(64.25901562350782 146.48852617699595) rotate(0 44.426241500181845 38.34415035476563)"><path d="M58.97 66.6 C69.52 71.45, 80.89 73.85, 90.74 79.38 M60.06 66.53 C69.64 70.12, 78.54 74.04, 88.3 77.26" stroke="#000000" stroke-width="1" fill="none"></path></g><g transform="translate(64.25901562350782 146.48852617699595) rotate(0 44.426241500181845 38.34415035476563)"><path d="M72.12 50.85 C78.23 60.88, 85.29 68.44, 90.74 79.38 M73.21 50.77 C78.48 59.63, 83.08 68.7, 88.3 77.26" stroke="#000000" stroke-width="1" fill="none"></path></g></g><g stroke-linecap="round" transform="translate(557.9706369879236 318.1984709583571) rotate(0 114 55.5)"><path d="M65.55 5.12 C77.2 1.44, 93.89 -0.45, 108.37 -0.61 C122.86 -0.77, 138.82 1.69, 152.46 4.17 C166.11 6.66, 179.61 9.71, 190.22 14.31 C200.83 18.91, 209.94 25.37, 216.12 31.78 C222.29 38.2, 226.51 45.76, 227.26 52.81 C228.02 59.86, 225.35 67.53, 220.65 74.09 C215.95 80.65, 208.58 86.88, 199.09 92.14 C189.59 97.4, 177.03 102.54, 163.68 105.63 C150.34 108.71, 133.47 110.44, 119.01 110.64 C104.54 110.85, 90.54 109.22, 76.89 106.86 C63.23 104.5, 48.08 100.95, 37.09 96.47 C26.1 92, 17.1 86.28, 10.94 80.01 C4.78 73.75, 0.83 66.08, 0.11 58.88 C-0.6 51.69, 1.94 43.6, 6.65 36.85 C11.35 30.1, 16.57 23.91, 28.36 18.36 C40.16 12.81, 67.29 6.16, 77.41 3.57 C87.53 0.98, 88.59 2.08, 89.07 2.83 M135.7 1.82 C149.53 2.39, 166.35 5.72, 178.35 9.78 C190.35 13.83, 199.78 20.15, 207.69 26.14 C215.61 32.12, 222.63 39.14, 225.85 45.69 C229.06 52.24, 229.97 58.71, 226.98 65.46 C224 72.22, 216.26 80.39, 207.94 86.21 C199.62 92.02, 188.87 96.64, 177.03 100.34 C165.2 104.05, 150.98 106.83, 136.9 108.45 C122.82 110.07, 106.76 111.16, 92.54 110.07 C78.33 108.98, 63.68 105.87, 51.63 101.91 C39.58 97.95, 28.32 92.28, 20.26 86.3 C12.19 80.32, 6.08 73.17, 3.22 66.01 C0.36 58.86, 0.62 50.41, 3.1 43.37 C5.58 36.33, 10.15 29.55, 18.1 23.77 C26.06 17.98, 38.52 12.28, 50.83 8.67 C63.13 5.06, 77.8 3.42, 91.95 2.12 C106.09 0.82, 128.59 0.74, 135.69 0.88 C142.78 1.02, 135 1.93, 134.53 2.97" stroke="#000000" stroke-width="1" fill="none"></path></g><g transform="translate(562.9706369879236 361.6984709583571) rotate(0 109 12)"><text x="109" y="17" font-family="Virgil, Segoe UI Emoji" font-size="20px" fill="#000000" text-anchor="middle" style="white-space: pre;" direction="ltr">AAVE Governance</text></g><g stroke-linecap="round"><g transform="translate(297.1933628767632 307.91576739623133) rotate(0 136.3450870437323 19.63795867712048)"><path d="M-0.83 -0.04 C44.74 6.38, 228.08 32.28, 273.52 38.92 M0.93 -1.11 C46.41 5.47, 227.47 33.9, 273.03 40.39" stroke="#000000" stroke-width="1" fill="none"></path></g><g transform="translate(297.1933628767632 307.91576739623133) rotate(0 136.3450870437323 19.63795867712048)"><path d="M243.55 47.78 C252.44 43.35, 262.9 44.3, 271.36 40.23 M242.89 47.3 C252.68 44.57, 260.71 42.32, 272.07 39.43" stroke="#000000" stroke-width="1" fill="none"></path></g><g transform="translate(297.1933628767632 307.91576739623133) rotate(0 136.3450870437323 19.63795867712048)"><path d="M246.61 27.48 C254.62 29.29, 264.14 36.48, 271.36 40.23 M245.94 27.01 C254.68 30.31, 261.8 34.1, 272.07 39.43" stroke="#000000" stroke-width="1" fill="none"></path></g></g><g transform="translate(337.09891410980686 265.6611413686952) rotate(8.165456802063474 104.5 25.5)"><text x="0" y="18.5" font-family="Virgil, Segoe UI Emoji" font-size="20px" fill="#000000" text-anchor="start" style="white-space: pre;" direction="ltr">if enough proposition </text><text x="0" y="44" font-family="Virgil, Segoe UI Emoji" font-size="20px" fill="#000000" text-anchor="start" style="white-space: pre;" direction="ltr">power calls create()</text></g><g stroke-linecap="round"><g transform="translate(598.099246904585 420.1903554508996) rotate(0 -176.14073852526275 -45.370239148444)"><path d="M-0.75 -0.86 C-59.73 -16.23, -294.85 -77.07, -353.34 -92.04 M1.06 1.3 C-57.59 -13.91, -292.21 -75.08, -351.06 -90.73" stroke="#000000" stroke-width="1" fill="none"></path></g><g transform="translate(598.099246904585 420.1903554508996) rotate(0 -176.14073852526275 -45.370239148444)"><path d="M-322.62 -94.87 C-332.18 -91.37, -340.24 -90.1, -351.21 -90.82 M-321.53 -92.89 C-330.51 -92.07, -338.18 -91.19, -350.49 -90.19" stroke="#000000" stroke-width="1" fill="none"></path></g><g transform="translate(598.099246904585 420.1903554508996) rotate(0 -176.14073852526275 -45.370239148444)"><path d="M-327.84 -75.02 C-335.62 -78.34, -341.88 -83.9, -351.21 -90.82 M-326.75 -73.05 C-334.22 -77.76, -340.42 -82.46, -350.49 -90.19" stroke="#000000" stroke-width="1" fill="none"></path></g></g><g transform="translate(283.91280683091986 401.43557291102684) rotate(14.34311014314817 135.5 25.5)"><text x="0" y="18.5" font-family="Virgil, Segoe UI Emoji" font-size="20px" fill="#000000" text-anchor="start" style="white-space: pre;" direction="ltr">after votin calls</text><text x="0" y="44" font-family="Virgil, Segoe UI Emoji" font-size="20px" fill="#000000" text-anchor="start" style="white-space: pre;" direction="ltr">execute() with delegateCall</text></g></svg>
